<svg width="241" height="241" viewBox="0 0 241 241" fill="none" xmlns="http://www.w3.org/2000/svg">
<rect width="241" height="241" rx="32" fill="#438EB9"/>
<path d="M207.693 165.402C207.693 177.467 207.647 189.533 207.693 201.598C207.714 202.399 207.571 203.196 207.274 203.94C206.976 204.684 206.53 205.36 205.963 205.925C205.395 206.491 204.718 206.934 203.973 207.229C203.228 207.524 202.43 207.663 201.629 207.639C177.508 207.583 153.382 207.583 129.251 207.639C126.695 207.639 124.699 206.687 123.648 204.277C123.372 203.563 123.244 202.801 123.272 202.036C123.272 187.739 123.272 173.435 123.272 159.123C123.236 158.548 123.159 157.976 123.042 157.412C123.005 157.263 122.987 157.111 122.988 156.959C123.341 154.978 122.949 152.991 122.988 151.01C123.105 143.504 123.205 135.997 123.287 128.491C123.293 127.779 123.439 127.076 123.717 126.421C123.995 125.766 124.399 125.172 124.907 124.673C125.414 124.174 126.015 123.78 126.675 123.513C127.335 123.246 128.04 123.112 128.752 123.118C138.633 123.118 148.516 123.118 158.402 123.118H201.783C202.816 123.051 203.846 123.281 204.753 123.78C205.66 124.279 206.406 125.027 206.902 125.935C207.392 126.849 207.656 127.868 207.67 128.905C207.708 141.032 207.693 153.213 207.693 165.402ZM165.478 151.985H178.833C180.015 151.911 181.135 151.43 182.002 150.624C182.87 149.818 183.431 148.737 183.592 147.564C183.678 146.852 183.608 146.13 183.389 145.447C183.169 144.764 182.804 144.137 182.319 143.608C181.835 143.08 181.241 142.662 180.58 142.385C179.918 142.107 179.205 141.976 178.488 141.999C175.909 141.961 173.33 141.999 170.751 141.999H152.584C149.299 141.999 147.403 144.118 147.211 146.919C147.177 147.568 147.274 148.218 147.498 148.828C147.722 149.438 148.067 149.997 148.512 150.471C148.957 150.944 149.494 151.322 150.09 151.583C150.685 151.843 151.327 151.98 151.977 151.985C156.491 152.008 160.973 151.985 165.455 151.985H165.478ZM162.623 173.392C162.774 173.918 162.872 174.458 162.915 175.003C162.915 179.788 162.915 184.574 162.915 189.364C162.902 189.731 162.92 190.098 162.969 190.461C163.033 190.794 163.166 191.109 163.359 191.386C163.552 191.664 163.801 191.898 164.091 192.074C164.38 192.25 164.702 192.363 165.038 192.406C165.373 192.45 165.714 192.423 166.039 192.327C167.397 191.897 167.919 191.099 167.919 189.333C167.919 184.49 167.919 179.639 167.919 174.796C167.919 174.412 167.996 174.029 168.05 173.484C168.353 173.731 168.674 173.957 169.009 174.159C169.53 174.524 170.129 174.761 170.759 174.85C171.238 174.821 171.699 174.656 172.088 174.375C172.477 174.093 172.777 173.707 172.954 173.261C173.162 172.844 173.232 172.372 173.155 171.913C173.078 171.454 172.857 171.031 172.524 170.705C170.698 168.848 168.871 166.99 166.998 165.187C166.792 164.957 166.539 164.773 166.257 164.647C165.974 164.521 165.669 164.456 165.359 164.456C165.05 164.456 164.745 164.521 164.462 164.647C164.18 164.773 163.927 164.957 163.721 165.187C161.894 166.952 160.106 168.748 158.348 170.559C157.94 170.954 157.692 171.486 157.652 172.053C157.613 172.62 157.784 173.181 158.133 173.629C158.436 174.113 158.904 174.471 159.45 174.635C159.997 174.798 160.585 174.758 161.103 174.52C161.66 174.216 162.172 173.836 162.623 173.392Z" fill="#15628E"/>
<path d="M165.455 34C177.667 34 189.886 34.0537 202.105 34C203.582 34.006 204.998 34.5946 206.044 35.6378C207.09 36.6811 207.683 38.0949 207.693 39.5723C207.693 64.0054 207.693 88.4385 207.693 112.872C207.701 113.609 207.561 114.34 207.282 115.023C207.002 115.705 206.589 116.324 206.066 116.844C205.542 117.364 204.92 117.773 204.236 118.048C203.552 118.323 202.819 118.457 202.082 118.444C177.685 118.444 153.282 118.444 128.875 118.444C125.974 118.444 123.095 115.972 123.256 112.803C123.395 110.139 123.303 107.43 123.256 104.789C123.219 104.125 123.139 103.464 123.019 102.809C123.011 102.717 123.011 102.625 123.019 102.533C123.095 100.998 123.177 99.45 123.264 97.8894C123.264 97.7973 123.264 97.7052 123.264 97.6207C123.264 80.5201 123.277 63.4195 123.303 46.3189C123.303 43.9626 123.303 41.5986 123.303 39.2346C123.291 38.5434 123.419 37.857 123.679 37.2165C123.939 36.5761 124.326 35.9947 124.816 35.5074C125.307 35.02 125.89 34.6366 126.532 34.3802C127.174 34.1239 127.861 33.9997 128.552 34.0153L165.455 34ZM165.333 62.9513C169.631 62.9513 173.921 62.9513 178.219 62.9513C179.208 63.0186 180.193 62.7866 181.048 62.2855C181.902 61.7844 182.585 61.0375 183.009 60.1421C183.418 59.347 183.611 58.4582 183.567 57.565C183.524 56.6719 183.247 55.8058 182.763 55.0537C182.279 54.3017 181.606 53.6901 180.812 53.2805C180.017 52.8709 179.128 52.6776 178.235 52.7201C169.792 52.7201 161.349 52.7201 152.906 52.7201C151.872 52.7666 150.857 53.0088 149.913 53.4339C148.316 54.1017 146.904 56.6268 147.18 58.0851C147.794 61.3472 149.844 62.9513 152.991 62.936C157.105 62.9436 161.219 62.959 165.333 62.9513ZM162.823 84.3578C162.861 84.8951 162.923 85.3095 162.923 85.7163C162.923 90.475 162.923 95.2337 162.923 99.9924C162.907 100.452 162.938 100.913 163.015 101.366C163.083 101.688 163.217 101.993 163.408 102.261C163.599 102.53 163.843 102.756 164.126 102.926C164.408 103.095 164.722 103.205 165.048 103.249C165.375 103.292 165.707 103.268 166.023 103.178C167.267 102.84 167.919 101.881 167.919 100.276C167.919 95.4026 167.919 90.5211 167.919 85.6396C167.94 85.1823 167.983 84.7263 168.05 84.2734C168.278 84.4221 168.496 84.5862 168.702 84.7646C168.956 85.0169 169.257 85.2158 169.589 85.3496C169.921 85.4834 170.276 85.5494 170.634 85.5436C170.992 85.5379 171.344 85.4606 171.672 85.3162C171.999 85.1719 172.294 84.9634 172.54 84.7032C173.438 83.6056 173.384 82.3085 172.21 81.1035C170.623 79.4814 169.024 77.8747 167.413 76.2834C166.254 75.1321 164.772 74.9939 163.629 76.0684C161.817 77.7647 160.067 79.5377 158.356 81.3337C157.925 81.741 157.663 82.2946 157.621 82.8855C157.578 83.4764 157.758 84.0618 158.125 84.5266C158.398 84.9601 158.812 85.2866 159.297 85.4515C159.782 85.6163 160.308 85.6096 160.789 85.4323C161.502 85.145 162.184 84.7849 162.823 84.3578Z" fill="#C6EAFF"/>
<path d="M118.175 162.178C118.175 166.783 118.268 171.45 118.129 176.086C117.973 178.151 117.673 180.202 117.231 182.226C116.894 184.214 116.464 186.194 116.095 188.182C115.968 188.834 115.617 189.421 115.103 189.842C114.588 190.262 113.943 190.49 113.279 190.484H94.3052C93.6253 190.499 92.9632 190.266 92.4412 189.83C91.9193 189.394 91.5726 188.784 91.4653 188.113C91.0124 185.618 90.5826 183.116 90.1298 180.614C89.9533 179.662 89.6616 178.726 89.5388 177.759C89.416 176.792 88.7022 176.377 87.8348 176.147C83.4805 174.911 79.2942 173.145 75.3701 170.889C75.1662 170.736 74.9162 170.656 74.6611 170.663C74.406 170.67 74.1608 170.763 73.9656 170.928C71.072 172.923 68.1477 174.888 65.231 176.861C63.4273 178.066 62.3221 177.997 60.787 176.462C56.5298 172.22 52.2776 167.968 48.0306 163.705C47.4168 163.203 47.0246 162.481 46.9385 161.693C46.8524 160.904 47.0792 160.114 47.5701 159.492C49.4813 156.644 51.4078 153.804 53.3573 150.987C53.6116 150.687 53.7587 150.31 53.7753 149.917C53.792 149.524 53.6773 149.136 53.4494 148.815C51.4091 145.253 49.8012 141.46 48.66 137.517C48.6102 137.406 48.5716 137.29 48.5449 137.172C48.4067 135.529 47.3629 135.092 45.8815 134.869C42.7116 134.363 39.5724 133.649 36.4179 133.042C35.7425 132.947 35.1248 132.61 34.68 132.093C34.2351 131.576 33.9935 130.915 34.0001 130.233C34.0001 123.909 34.0001 117.584 34.0001 111.26C34.0001 109.617 35.0133 108.681 37.1393 108.282C40.5088 107.66 43.8783 107.061 47.2401 106.394C47.4461 106.329 47.6353 106.22 47.7945 106.074C47.9536 105.928 48.0788 105.749 48.1611 105.549C49.3047 102.556 50.3255 99.5089 51.4999 96.5308C52.0963 95.1539 52.7835 93.818 53.5568 92.532C53.7403 92.2564 53.8296 91.9288 53.8117 91.5982C53.7937 91.2676 53.6693 90.9517 53.4571 90.6976C51.4001 87.7656 49.4045 84.7953 47.4089 81.8249C47.0205 81.1916 46.8668 80.4419 46.9749 79.7068C47.0829 78.9717 47.4457 78.2979 47.9999 77.803C52.2418 73.5509 56.4914 69.3039 60.7486 65.062C62.23 63.596 63.5578 63.5269 65.2771 64.6936C68.0555 66.5894 70.8494 68.4699 73.6125 70.3964C73.8827 70.6306 74.2233 70.7682 74.5804 70.7877C74.9375 70.8071 75.2909 70.7073 75.585 70.5038C79.62 68.1902 83.9321 66.3978 88.4182 65.1695C88.6876 65.1274 88.9357 64.9979 89.1244 64.801C89.313 64.6041 89.4316 64.3506 89.462 64.0796C89.7537 62.391 90.0837 60.7101 90.4061 59.0292C90.7822 57.072 91.1122 55.1148 91.5497 53.1729C91.7112 52.4757 92.1177 51.8596 92.6954 51.437C93.273 51.0143 93.9832 50.8132 94.6966 50.8703C100.775 50.8703 106.854 50.8013 112.933 50.8703C113.335 50.8336 113.74 50.8779 114.124 51.0006C114.509 51.1232 114.865 51.3217 115.171 51.5844C115.477 51.847 115.728 52.1685 115.908 52.5297C116.088 52.8908 116.193 53.2845 116.218 53.6872C116.802 56.9953 117.508 60.288 118.152 63.5883C118.205 63.9517 118.223 64.3192 118.206 64.6859C118.206 74.541 118.206 84.3962 118.206 94.2513C118.206 95.5561 118.03 95.6098 116.832 95.0188C114.317 93.7558 111.634 92.8589 108.865 92.3555C106.051 91.9009 103.189 91.8209 100.353 92.1175C97.481 92.4166 94.6791 93.195 92.064 94.4201C87.9957 96.25 84.4089 99.0012 81.5871 102.456C79.2305 105.325 77.4434 108.618 76.3219 112.158C75.271 115.579 74.8472 119.162 75.0708 122.734C75.2161 125.358 75.7542 127.946 76.6673 130.41C78.4244 135.372 81.5189 139.752 85.609 143.066C89.8931 146.597 95.112 148.804 100.629 149.418C106.146 150.033 111.723 149.029 116.679 146.528C116.894 146.408 117.117 146.302 117.346 146.213C117.884 146.021 118.168 146.213 118.168 146.797C118.168 147.656 118.168 148.516 118.168 149.375V162.178H118.175Z" fill="white"/>
</svg>
